<svg version="1.1" xmlns="http://www.w3.org/2000/svg" width="600" height="600">
<path d="M0 0 C0.98087585 -0.00172211 1.96175171 -0.00344421 2.97235107 -0.00521851 C24.13725296 -0.00101535 44.57139515 2.37939427 65.0625 7.8125 C65.81716553 8.00561768 66.57183105 8.19873535 67.34936523 8.39770508 C72.502278 9.82367202 76.38136169 11.71681559 79.6875 16.125 C80.75956426 19.63357393 81.14709685 22.80072406 80.375 26.375 C77.8689525 30.54903365 74.88370017 33.49782495 70.375 35.375 C63.94893819 35.5676409 57.43867343 33.52366885 51.25 32 C-6.90642632 18.47763983 -67.55697178 28.68614714 -118.43115234 59.98583984 C-124.02188636 63.52593294 -129.35658468 67.37503117 -134.625 71.375 C-135.50285156 72.04015625 -136.38070312 72.7053125 -137.28515625 73.390625 C-144.06798258 78.67929466 -150.38474237 84.46619212 -156.625 90.375 C-157.55570312 91.2515625 -158.48640625 92.128125 -159.4453125 93.03125 C-166.05774837 99.43645854 -171.78978866 106.25260346 -177.30175781 113.61181641 C-178.55948034 115.28769686 -179.8373063 116.94649506 -181.1171875 118.60546875 C-204.23722453 149.1664902 -220.61828435 190.92527244 -220.828125 229.4375 C-220.83527527 230.29753128 -220.84242554 231.15756256 -220.84979248 232.0436554 C-221.17687669 283.02833725 -210.27297877 331.16890684 -178.625 372.375 C-177.95984375 373.2515625 -177.2946875 374.128125 -176.609375 375.03125 C-171.3240159 381.82057307 -165.53028873 388.12833048 -159.625 394.375 C-159.16641602 394.86758301 -158.70783203 395.36016602 -158.23535156 395.86767578 C-149.85958848 404.82566375 -140.55380802 412.20458348 -130.625 419.375 C-130.02381348 419.81553711 -129.42262695 420.25607422 -128.80322266 420.70996094 C-82.71664617 454.20607695 -22.98610036 466.84876004 33.11279297 459.24169922 C37.91055342 458.45853424 42.63942822 457.46860318 47.375 456.375 C48.78555664 456.06949219 48.78555664 456.06949219 50.22460938 455.7578125 C77.84718444 449.69842569 105.49572791 438.16177471 128.375 421.375 C128.8999707 420.98989258 129.42494141 420.60478516 129.96582031 420.20800781 C136.63671394 415.28006589 143.00108058 410.08759558 149.1015625 404.4609375 C151.2139424 402.5227745 153.37498072 400.66476729 155.5625 398.8125 C159.57146085 395.30565552 162.94287138 391.43711781 166.375 387.375 C167.31468048 386.30707275 168.25623948 385.2407968 169.19921875 384.17578125 C175.57428215 376.93484347 181.28767984 369.59932894 186.375 361.375 C186.73158691 360.80700684 187.08817383 360.23901367 187.45556641 359.65380859 C218.82164912 309.57956384 228.68765609 251.04994012 215.88671875 193.3828125 C214.2485507 186.5067443 212.02913442 179.84295146 209.52270508 173.23657227 C207.29765318 167.16575166 206.85527559 162.7183937 209.625 156.625 C211.72864287 153.9203163 213.20677992 152.71269292 216.375 151.375 C221.06245782 150.85417135 223.35001218 150.9019287 227.625 152.875 C244.88487707 168.56579734 247.08648365 208.74792412 248.24609375 230.49804688 C251.13217408 294.91011251 229.50556089 357.06271998 186.375 405 C184.39348867 407.14279713 182.38763281 409.26144044 180.375 411.375 C179.75592773 412.02807129 179.13685547 412.68114258 178.49902344 413.35400391 C168.52638074 423.80465405 158.17330523 433.03741722 146.375 441.375 C145.74384277 441.82423828 145.11268555 442.27347656 144.46240234 442.73632812 C134.54520481 449.73547569 124.11297085 455.73172167 113.375 461.375 C112.7243457 461.72272461 112.07369141 462.07044922 111.40332031 462.42871094 C91.28066762 473.05504737 67.71555931 480.27916013 45.375 484.375 C44.5092334 484.53581055 43.6434668 484.69662109 42.75146484 484.86230469 C-20.72623495 495.96260554 -88.43570369 481.28068935 -141.43554688 444.78833008 C-171.54484109 423.63326063 -196.95129285 397.12801856 -215.625 365.375 C-216.26953125 364.32441406 -216.9140625 363.27382813 -217.578125 362.19140625 C-226.8880094 346.63217031 -233.33026878 329.66834261 -238.625 312.375 C-239.00398438 311.15296875 -239.38296875 309.9309375 -239.7734375 308.671875 C-257.58472389 248.94380183 -248.67815298 184.16262494 -219.70117188 129.54467773 C-187.92527648 71.64046168 -133.70534701 28.35982653 -70.53686523 9.56787109 C-46.97705833 2.78261162 -24.45265227 -0.01100303 0 0 Z " fill="#C851C1" transform="translate(299.625,51.625)"/>
<path d="M0 0 C0.83789062 0.40089844 1.67578125 0.80179687 2.5390625 1.21484375 C16.94383652 8.90779582 25.50427006 21.52077872 30.15625 36.796875 C37.66136766 69.7360025 24.0377848 103.29702011 7 131 C-9.17737981 156.13931236 -30.0360029 179.84146527 -53 199 C-53.91394531 199.79148437 -54.82789063 200.58296875 -55.76953125 201.3984375 C-95.22071981 235.47190126 -95.22071981 235.47190126 -107.67578125 235.3515625 C-111.65279302 234.74999769 -113.28353165 232.91523432 -116 230 C-118.31205572 226.7421033 -118.47249357 223.93744642 -118 220 C-115.09494308 214.7318744 -111.54605855 211.82652942 -106.75 208.4375 C-105.31176995 207.39080744 -103.87563274 206.34123424 -102.44140625 205.2890625 C-101.33949951 204.48130371 -101.33949951 204.48130371 -100.21533203 203.65722656 C-94.58215583 199.44320848 -89.19219594 194.91439549 -83.76318359 190.44287109 C-82.22448019 189.18369952 -80.67014719 187.94367578 -79.11328125 186.70703125 C-61.31114988 172.52386829 -43.90537171 156.04795873 -30 138 C-29.22785156 137.05640625 -28.45570313 136.1128125 -27.66015625 135.140625 C-8.78180492 111.6396126 8.72870755 80.10726605 6 49 C4.25949164 40.13923016 1.41522945 31.75769835 -6.24609375 26.44140625 C-12.21904556 22.97925192 -16.76304932 21.85058829 -23.6875 21.8125 C-25.42580078 21.79123047 -25.42580078 21.79123047 -27.19921875 21.76953125 C-34.86850144 22.23457511 -41.43136788 24.28625441 -48.3125 27.625 C-49.04960205 27.97981445 -49.7867041 28.33462891 -50.54614258 28.70019531 C-94.21660751 50.20505907 -122.03949929 97.21712982 -137.2890625 141.7421875 C-143.70334323 161.15513216 -148.36989503 181.68756728 -148.58496094 202.20532227 C-148.71688738 208.2614788 -150.09941424 212.81991634 -154.125 217.4375 C-158.14733674 219.62355258 -161.51632845 219.66847467 -166 219 C-170.27885958 217.23264496 -171.92027879 215.06278755 -174 211 C-174.38818359 208.4230957 -174.38818359 208.4230957 -174.3984375 205.67578125 C-174.40464111 204.65661621 -174.41084473 203.63745117 -174.41723633 202.58740234 C-174.40329834 201.50668457 -174.38936035 200.4259668 -174.375 199.3125 C-174.36557373 198.19053223 -174.35614746 197.06856445 -174.34643555 195.91259766 C-174.18973504 187.17607633 -173.31420463 178.87398542 -171.49169922 170.33886719 C-170.95740436 167.79738519 -170.48034982 165.24824451 -170.00390625 162.6953125 C-165.69615525 140.46978662 -157.95155217 119.30133409 -148 99 C-147.61231445 98.2054541 -147.22462891 97.4109082 -146.82519531 96.59228516 C-126.84435741 56.09876886 -93.51177383 14.86198295 -49.52734375 -0.41845703 C-46.70183086 -1.34461297 -43.86352924 -2.1994034 -41 -3 C-40.39019287 -3.17740723 -39.78038574 -3.35481445 -39.15209961 -3.53759766 C-27.10980768 -6.12501693 -11.05586565 -5.70683033 0 0 Z " fill="#C64FC0" transform="translate(487,67)"/>
<path d="M0 0 C13.30067372 9.88965757 23.98169858 24.45454097 26.67578125 41.21484375 C26.86410557 46.05634823 26.58613852 48.96677773 23.39453125 52.75 C20.45772824 55.76483401 18.88609096 56.61434885 14.58203125 57.125 C10.30557709 57.01653921 7.92525418 55.78548258 4.85546875 52.84765625 C2.21451451 49.25049444 0.97240207 45.19557885 -0.4921875 41.01171875 C-3.80794146 32.11043605 -8.6129453 24.69920385 -17.26953125 20.4375 C-26.70356099 16.61073864 -34.43334583 16.56982615 -43.8671875 20.359375 C-57.51497418 26.68986268 -66.60869536 34.88379675 -75.73046875 46.6875 C-76.40078125 47.54214844 -77.07109375 48.39679688 -77.76171875 49.27734375 C-91.36153236 67.22154227 -99.97577248 87.76754431 -104.73046875 109.6875 C-104.90408936 110.29045898 -105.07770996 110.89341797 -105.2565918 111.51464844 C-108.94239972 128.41505569 -106.70201393 148.49825324 -97.60546875 163.25 C-93.10885574 169.11342489 -86.7243781 173.35619688 -79.73046875 175.6875 C-69.7740079 176.43131244 -61.14998038 176.74769793 -52.73046875 170.6875 C-52.02664062 170.19121094 -51.3228125 169.69492187 -50.59765625 169.18359375 C-39.1952654 160.18741085 -33.8135525 145.88388912 -30.48046875 132.1875 C-30.31716064 131.52411621 -30.15385254 130.86073242 -29.9855957 130.17724609 C-27.53233985 119.35782577 -27.57058997 108.28913348 -27.60546875 97.25 C-27.60160156 96.02990234 -27.59773438 94.80980469 -27.59375 93.55273438 C-27.60119926 86.54670901 -27.87127724 79.62746124 -28.4855957 72.64794922 C-29.5799995 59.41690189 -29.5799995 59.41690189 -26.98046875 54.125 C-22.128527 48.86872977 -22.128527 48.86872977 -17.35546875 48.25 C-13.03828274 48.77103969 -11.04233744 49.90251951 -7.73046875 52.6875 C-4.66582082 56.83112161 -3.81414225 61.08426384 -3.06640625 66.08203125 C-2.94026947 66.90959427 -2.81413269 67.73715729 -2.68417358 68.58979797 C-1.39414045 77.86654439 -1.27785449 87.11592689 -1.33935547 96.46801758 C-1.35551557 99.38344656 -1.33935935 102.29750174 -1.3203125 105.21289062 C-1.28859998 133.78647173 -8.31466805 163.94444025 -28.84375 184.92578125 C-41.94454787 197.45929152 -57.17830924 203.34377619 -75.26953125 203 C-91.83764632 201.50400767 -105.81868542 194.07904675 -116.73046875 181.6875 C-131.94012245 161.41635558 -135.05534038 136.49971023 -132.43017578 111.87011719 C-126.8180645 73.39319627 -105.75265674 32.05083749 -74.51171875 8.16015625 C-52.72863417 -7.77012581 -24.18814267 -16.04520244 0 0 Z " fill="#C750C1" transform="translate(260.73046875,238.3125)"/>
<path d="M0 0 C4.90847421 4.05482652 9.29147938 8.53722975 10.28125 15.046875 C11.01551322 39.155184 -7.2972304 61.07001424 -22.82421875 77.86328125 C-24.66585867 79.87376422 -26.44785595 81.91178263 -28.22412109 83.97900391 C-32.2473435 88.58087708 -36.51324389 92.90743079 -40.83984375 97.22265625 C-41.65441544 98.03818466 -42.46898712 98.85371307 -43.3082428 99.69395447 C-45.02059193 101.40698008 -46.73418842 103.11875965 -48.44897461 104.8293457 C-51.05502015 107.43003552 -53.65568522 110.03601956 -56.25585938 112.64257812 C-57.92936699 114.31542486 -59.60318482 115.98796134 -61.27734375 117.66015625 C-62.0452977 118.43013443 -62.81325165 119.20011261 -63.60447693 119.99342346 C-78.74345517 135.06770389 -78.74345517 135.06770389 -85 135.875 C-88.55047079 135.75708769 -89.14026879 135.36291221 -92.125 133 C-95.71168908 127.78960708 -94.58028226 122.06441733 -93.578125 116.14453125 C-92.8431704 112.53100447 -91.99953899 108.95717281 -91.125 105.375 C-90.75955078 103.71597656 -90.75955078 103.71597656 -90.38671875 102.0234375 C-81.57599885 65.02676531 -60.66884698 24.05731461 -28.29296875 2.48828125 C-19.99342399 -2.27812397 -8.95838476 -4.60605404 0 0 Z " fill="#EB92E4" transform="translate(446.125,138.625)"/>
</svg>
